<svg width="16" height="16" viewBox="0 0 16 16" fill="none" xmlns="http://www.w3.org/2000/svg">
<path d="M11.6576 2.98349H4.30898C3.90814 2.98349 3.54071 3.24752 3.54071 3.59075C3.54071 3.93399 3.87474 4.19801 4.30898 4.19801H11.6576C12.0585 4.19801 12.4259 3.93399 12.4259 3.59075C12.4259 3.24752 12.0585 2.98349 11.6576 2.98349Z" fill="#7C7C7C"/>
<path d="M11.6576 5.49176H4.30898C3.90814 5.49176 3.54071 5.75579 3.54071 6.09902C3.54071 6.44225 3.87474 6.70628 4.30898 6.70628H11.6576C12.0585 6.70628 12.4259 6.44225 12.4259 6.09902C12.4259 5.75579 12.0585 5.49176 11.6576 5.49176Z" fill="#7C7C7C"/>
<path d="M9.55324 7.9736H4.30898C3.90814 7.9736 3.54071 8.23763 3.54071 8.58086C3.54071 8.9241 3.87474 9.18812 4.30898 9.18812H9.55324C9.95407 9.18812 10.3215 8.9241 10.3215 8.58086C10.3215 8.23763 9.95407 7.9736 9.55324 7.9736Z" fill="#7C7C7C"/>
<path d="M7.98329 10.5082C6.78079 10.5082 5.8455 11.2739 5.8455 12.198C5.8455 13.1221 6.81419 13.8878 7.98329 13.8878C9.1858 13.8878 10.1211 13.1221 10.1211 12.198C10.1211 11.2739 9.1858 10.5082 7.98329 10.5082ZM7.98329 12.6997C7.61586 12.6997 7.34864 12.462 7.34864 12.198C7.34864 11.934 7.61586 11.6964 7.98329 11.6964C8.35072 11.6964 8.61795 11.934 8.61795 12.198C8.61795 12.462 8.35072 12.6997 7.98329 12.6997Z" fill="#7C7C7C"/>
<path d="M12.5261 0H3.4405C1.53653 0 0 1.21452 0 2.71947V13.2805C0 14.7855 1.53653 16 3.4405 16H12.5595C14.4635 16 16 14.7855 16 13.2805V2.71947C15.9666 1.21452 14.4301 0 12.5261 0ZM14.4635 13.2805C14.4635 14.1254 13.595 14.8119 12.5261 14.8119H3.4405C2.37161 14.8119 1.50313 14.1254 1.50313 13.2805V2.71947C1.50313 1.87459 2.37161 1.18812 3.4405 1.18812H12.5595C13.6284 1.18812 14.4969 1.87459 14.4969 2.71947V13.2805H14.4635Z" fill="#7C7C7C"/>
</svg>
