<svg width="31" height="28" viewBox="0 0 31 28" fill="none" xmlns="http://www.w3.org/2000/svg">
<g clip-path="url(#clip0_319_409)">
<path d="M5.69473 27.4286H3.00344C2.35845 27.4286 1.73983 27.1898 1.28348 26.7646C0.827123 26.3394 0.570357 25.7627 0.569582 25.161V2.27025C0.569197 1.97202 0.631888 1.67664 0.754064 1.40104C0.876241 1.12544 1.0555 0.875026 1.28158 0.664142C1.50767 0.453258 1.77612 0.286046 2.07159 0.172083C2.36705 0.0581192 2.68371 -0.000357459 3.00344 1.64393e-06H27.8071C28.1269 -0.000357459 28.4435 0.0581192 28.739 0.172083C29.0345 0.286046 29.3029 0.453258 29.529 0.664142C29.7551 0.875026 29.9343 1.12544 30.0565 1.40104C30.1787 1.67664 30.2414 1.97202 30.241 2.27025V5.76022C30.241 5.76022 21.3393 6.77528 17.0186 7.64027C14.8597 8.06594 12.7096 8.52163 10.7029 9.41663C9.80533 9.78485 8.98059 10.2913 8.26315 10.9147C6.85607 12.2135 6.91458 13.6734 8.40941 14.8903C9.46545 15.7471 10.7116 16.2847 11.9841 16.8004C13.5492 17.4225 15.1874 17.8919 16.7319 18.5549C17.1196 18.7124 17.4874 18.9091 17.8289 19.1416C18.5573 19.6655 18.6743 20.2631 18.177 20.9916C17.737 21.5841 17.1777 22.0911 16.5301 22.4842C14.7456 23.6767 12.7945 24.558 10.8082 25.4094C9.20802 26.0943 7.59033 26.7164 5.93168 27.3058C5.85854 27.3358 5.77663 27.3904 5.69473 27.4286Z" fill="#005B86"/>
<path d="M27.7905 27.4122L23.2394 27.3931C23.2229 27.3936 23.2067 27.3895 23.1928 27.3812C23.179 27.373 23.1682 27.3611 23.162 27.3471C23.1558 27.3331 23.1545 27.3177 23.1582 27.303C23.1619 27.2883 23.1704 27.275 23.1827 27.2649C24.378 26.2254 25.5732 25.1968 26.658 24.0563C27.4992 23.1984 28.1842 22.2229 28.687 21.1669C29.3205 19.7727 29.0396 18.534 27.8981 17.4481C26.9722 16.6256 25.8829 15.9718 24.6887 15.5219C22.4237 14.5779 20.0301 13.994 17.6126 13.492C16.1185 13.1836 14.6035 12.9463 13.199 12.3433C13.1333 12.3133 13.0675 12.2805 13.0048 12.2451C12.1472 11.7485 12.0157 11.312 12.6133 10.7799C12.9922 10.4627 13.4278 10.2071 13.9013 10.0242C15.8825 9.17836 17.9921 8.68179 20.1078 8.20705C23.3739 7.47311 26.6819 6.9056 29.9928 6.40358C30.092 6.39284 30.1918 6.38738 30.2917 6.38721V6.62458V25.1258C30.2917 25.7318 30.0282 26.3129 29.5593 26.7416C29.0903 27.1703 28.4541 27.4115 27.7905 27.4122Z" fill="#04B25B"/>
<path d="M30.3066 6.38717L29.7089 6.47175C26.1231 7.01742 22.5372 7.64223 19.0111 8.48803C17.2182 8.91912 15.4252 9.37203 13.7399 10.1496C13.3866 10.3102 13.0589 10.514 12.7657 10.7553C12.3354 11.1264 12.3354 11.4402 12.7657 11.8112C13.1395 12.1013 13.575 12.3177 14.0447 12.4469C15.2159 12.812 16.4143 13.1002 17.6305 13.3091C20.0922 13.7618 22.4956 14.4466 24.8023 15.3527C26.0287 15.8212 27.1448 16.5011 28.0893 17.3553C29.192 18.4085 29.4729 19.6144 28.9141 20.965C28.4235 22.0674 27.7257 23.0831 26.8522 23.9662C25.8153 25.0794 24.6469 26.078 23.4964 27.0902C23.355 27.2244 23.1825 27.3279 22.9914 27.3931C22.8153 27.4244 22.6356 27.4354 22.4565 27.4258H5.15771C5.15771 27.4258 10.3811 25.2595 12.7269 24.1518C14.1522 23.5117 15.5003 22.7372 16.749 21.8408C17.11 21.5709 17.4296 21.258 17.6993 20.9104C17.8097 20.7667 17.8878 20.6044 17.9291 20.4329C17.9703 20.2614 17.974 20.0842 17.9398 19.9114C17.9056 19.7387 17.8343 19.5738 17.7299 19.4263C17.6256 19.2789 17.4902 19.1518 17.3317 19.0524C16.3606 18.433 15.24 18.0893 14.1552 17.7127C12.6438 17.235 11.1667 16.6709 9.73268 16.0239C8.83621 15.5846 7.93975 15.1017 7.28832 14.3514C6.30818 13.2245 6.37392 12.0049 7.4706 10.9381C8.38205 10.1024 9.46981 9.44431 10.668 9.0037C12.4609 8.28067 14.3555 7.8796 16.256 7.49762C19.9345 6.76096 23.6548 6.26166 27.3901 5.86058C28.2298 5.76782 29.9151 5.60684 29.9151 5.60684L30.3066 5.56592V6.38717Z" fill="#FEFEFE"/>
</g>
<defs>
<clipPath id="clip0_319_409">
<rect width="30.3095" height="27.4286" fill="white"/>
</clipPath>
</defs>
</svg>
