<svg width="134" height="32" viewBox="0 0 134 32" fill="none" xmlns="http://www.w3.org/2000/svg">
<g clip-path="url(#clip0_294_208)">
<path d="M43.9746 7.40061C43.9746 8.46834 43.5827 9.16061 42.8218 9.50382L43.9112 13.6868C43.9602 13.8774 43.8651 13.9801 43.6922 13.9801H42.0638C41.9994 13.985 41.9357 13.9642 41.8862 13.922C41.8366 13.8798 41.8053 13.8196 41.7987 13.7542L40.7496 9.69448H39.6717V13.7102C39.6776 13.7468 39.6749 13.7842 39.6639 13.8195C39.6528 13.8547 39.6337 13.8868 39.6081 13.9131C39.5826 13.9395 39.5512 13.9592 39.5167 13.9709C39.4822 13.9825 39.4454 13.9857 39.4095 13.9801H37.7927C37.759 13.9833 37.725 13.9788 37.6932 13.9671C37.6613 13.9554 37.6324 13.9367 37.6085 13.9124C37.5846 13.888 37.5662 13.8586 37.5547 13.8262C37.5432 13.7938 37.5388 13.7592 37.5419 13.7249V1.47525C37.5388 1.44094 37.5432 1.40636 37.5547 1.37397C37.5662 1.34157 37.5846 1.31215 37.6085 1.28779C37.6324 1.26343 37.6613 1.24473 37.6932 1.23302C37.725 1.22132 37.759 1.21688 37.7927 1.22004H41.7151C43.1849 1.22004 43.9689 2.01791 43.9689 3.51392L43.9746 7.40061ZM41.2194 7.59127C41.3034 7.59891 41.388 7.58769 41.4673 7.5584C41.5466 7.52911 41.6186 7.48247 41.6783 7.42177C41.7379 7.36107 41.7837 7.28778 41.8125 7.20708C41.8413 7.12639 41.8523 7.04024 41.8448 6.95474V3.95979C41.8523 3.87428 41.8413 3.78814 41.8125 3.70745C41.7837 3.62675 41.7379 3.55346 41.6783 3.49276C41.6186 3.43206 41.5466 3.38541 41.4673 3.35613C41.388 3.32684 41.3034 3.31562 41.2194 3.32325H39.6717V7.59127H41.2194Z" fill="#005A86"/>
<path d="M48.5977 1.22079C48.6365 1.21763 48.6756 1.22207 48.7122 1.23379C48.7489 1.24551 48.7821 1.26423 48.8097 1.28862C48.8372 1.313 48.8584 1.34246 48.8716 1.3749C48.8849 1.40733 48.8899 1.44195 48.8863 1.47629V13.7255C48.8899 13.7599 48.8849 13.7945 48.8716 13.8269C48.8584 13.8594 48.8372 13.8888 48.8097 13.9132C48.7821 13.9376 48.7489 13.9563 48.7122 13.968C48.6756 13.9798 48.6365 13.9842 48.5977 13.981H46.727C46.688 13.9853 46.6483 13.9817 46.6111 13.9703C46.5739 13.959 46.5401 13.9403 46.5123 13.9157C46.4844 13.891 46.4633 13.8611 46.4505 13.8282C46.4378 13.7952 46.4336 13.7601 46.4385 13.7255V1.47629C46.4336 1.44172 46.4378 1.40662 46.4505 1.37367C46.4633 1.34072 46.4844 1.31078 46.5123 1.28615C46.5401 1.26151 46.5739 1.24282 46.6111 1.23149C46.6483 1.22017 46.688 1.21651 46.727 1.22079H48.5977Z" fill="#005A86"/>
<path d="M58.6737 1.2257C58.9197 1.2257 59.02 1.35179 58.9774 1.5776L56.1796 13.6889C56.1697 13.7732 56.1266 13.8505 56.0594 13.9051C55.9921 13.9596 55.9058 13.9872 55.8181 13.9822H54.1747C54.087 13.9872 54.0006 13.9596 53.9334 13.9051C53.8661 13.8505 53.8231 13.7732 53.8132 13.6889L51.0335 1.5776C50.9849 1.35179 51.0822 1.2257 51.3373 1.2257H52.8988C52.9865 1.22065 53.0728 1.24824 53.14 1.30279C53.2073 1.35734 53.2503 1.4347 53.2603 1.51895L54.9918 10.0555L56.7416 1.51308C56.7516 1.4283 56.795 1.35049 56.8629 1.29586C56.9308 1.24123 57.018 1.214 57.1062 1.21983L58.6737 1.2257Z" fill="#005A86"/>
<path d="M67.6628 3.0651C67.6628 3.22361 67.5921 3.33515 67.3833 3.33515H63.0195V6.52291H66.3518C66.3909 6.52039 66.4301 6.52588 66.4666 6.53897C66.5031 6.55206 66.5359 6.57243 66.5627 6.59858C66.5895 6.62474 66.6096 6.65602 66.6214 6.69016C66.6333 6.72429 66.6367 6.76042 66.6313 6.7959V8.37217C66.6367 8.40765 66.6333 8.44378 66.6214 8.47791C66.6096 8.51205 66.5895 8.54333 66.5627 8.56949C66.5359 8.59564 66.5031 8.61601 66.4666 8.6291C66.4301 8.64219 66.3909 8.64768 66.3518 8.64516H63.0195V11.874H67.3833C67.5921 11.874 67.6628 11.9533 67.6628 12.1294V13.7233C67.6628 13.8818 67.5921 13.9786 67.3833 13.9786H60.9565C60.9202 13.9801 60.884 13.9744 60.8503 13.9619C60.8167 13.9493 60.7864 13.9302 60.7617 13.9059C60.7369 13.8816 60.7182 13.8527 60.7069 13.8212C60.6956 13.7896 60.692 13.7562 60.6962 13.7233V1.47122C60.6919 1.43799 60.6956 1.40432 60.7071 1.37255C60.7186 1.34079 60.7376 1.31172 60.7627 1.28737C60.7878 1.26303 60.8185 1.24401 60.8525 1.23165C60.8865 1.21929 60.9231 1.2139 60.9597 1.21584H67.3865C67.5954 1.21584 67.666 1.31271 67.666 1.47122L67.6628 3.0651Z" fill="#005A86"/>
<path d="M76.1752 7.40142C76.1752 8.4693 75.7646 9.16166 74.9675 9.50491L76.1088 13.6884C76.1601 13.8791 76.0605 13.9818 75.8793 13.9818H74.1765C74.1085 13.9875 74.0409 13.967 73.9884 13.9248C73.9359 13.8825 73.9025 13.8218 73.8957 13.7559L72.7966 9.71027H71.6674V13.7119C71.6728 13.746 71.6703 13.7809 71.6602 13.814C71.6501 13.8471 71.6326 13.8776 71.609 13.9034C71.5853 13.9292 71.5561 13.9496 71.5234 13.9631C71.4907 13.9767 71.4554 13.983 71.4199 13.9818H69.6989C69.6636 13.985 69.628 13.9805 69.5946 13.9688C69.5613 13.9571 69.531 13.9384 69.5059 13.914C69.4809 13.8897 69.4616 13.8602 69.4496 13.8278C69.4375 13.7954 69.4329 13.7609 69.4362 13.7266V1.47528C69.4329 1.44097 69.4375 1.40639 69.4496 1.37399C69.4616 1.34159 69.4809 1.31216 69.5059 1.2878C69.531 1.26344 69.5613 1.24474 69.5946 1.23303C69.628 1.22132 69.6636 1.21688 69.6989 1.22004H73.8141C75.357 1.22004 76.1752 2.01802 76.1752 3.51422V7.40142ZM73.2888 7.59212C73.377 7.60021 73.466 7.58933 73.5495 7.56024C73.6329 7.53116 73.7087 7.48458 73.7716 7.42381C73.8344 7.36305 73.8827 7.28959 73.913 7.20865C73.9433 7.12771 73.9549 7.04128 73.947 6.9555V3.96015C73.9549 3.87437 73.9433 3.78793 73.913 3.707C73.8827 3.62606 73.8344 3.5526 73.7716 3.49184C73.7087 3.43107 73.6329 3.38449 73.5495 3.3554C73.466 3.32632 73.377 3.31544 73.2888 3.32353H71.6674V7.59212H73.2888Z" fill="#005A86"/>
<path d="M89.6744 3.06883C89.6776 3.10313 89.6731 3.13771 89.6613 3.17011C89.6495 3.20251 89.6306 3.23193 89.6061 3.25629C89.5815 3.28065 89.5518 3.29935 89.5191 3.31105C89.4865 3.32276 89.4516 3.32719 89.417 3.32403H85.4325V6.52436H88.4527C88.4873 6.5212 88.5221 6.52564 88.5548 6.53734C88.5875 6.54905 88.6171 6.56775 88.6417 6.59211C88.6663 6.61647 88.6851 6.64589 88.6969 6.67829C88.7087 6.71069 88.7132 6.74526 88.71 6.77957V8.3724C88.7143 8.40694 88.7107 8.442 88.6992 8.47491C88.6878 8.50782 88.669 8.53772 88.6442 8.56233C88.6194 8.58693 88.5892 8.6056 88.556 8.61692C88.5229 8.62823 88.4875 8.63188 88.4527 8.6276H85.4325V13.7112C85.4378 13.7458 85.4353 13.7812 85.4251 13.8148C85.4148 13.8483 85.3971 13.8792 85.3733 13.905C85.3495 13.9309 85.3201 13.9512 85.2873 13.9643C85.2546 13.9775 85.2193 13.9832 85.184 13.981H83.5126C83.4778 13.9853 83.4425 13.9817 83.4093 13.9704C83.3761 13.959 83.3459 13.9404 83.3211 13.9158C83.2963 13.8912 83.2775 13.8613 83.2661 13.8283C83.2547 13.7954 83.251 13.7604 83.2553 13.7258V1.476C83.251 1.44146 83.2547 1.4064 83.2661 1.37349C83.2775 1.34058 83.2963 1.31068 83.3211 1.28607C83.3459 1.26146 83.3761 1.24279 83.4093 1.23148C83.4425 1.22017 83.4778 1.21651 83.5126 1.22079H89.4288C89.4634 1.21763 89.4983 1.22206 89.531 1.23377C89.5637 1.24548 89.5933 1.26418 89.6179 1.28854C89.6425 1.3129 89.6613 1.34232 89.6731 1.37472C89.6849 1.40711 89.6894 1.44169 89.6862 1.476L89.6744 3.06883Z" fill="#005A86"/>
<path d="M93.9857 11.8745H97.7207C97.7548 11.8696 97.7896 11.8729 97.8223 11.884C97.855 11.8951 97.8848 11.9138 97.9091 11.9385C97.9335 11.9633 97.9519 11.9935 97.9629 12.0267C97.9738 12.0599 97.977 12.0953 97.9722 12.13V13.7245C97.9776 13.7593 97.9749 13.795 97.9642 13.8285C97.9535 13.862 97.9351 13.8925 97.9105 13.9174C97.886 13.9423 97.856 13.961 97.823 13.9719C97.79 13.9828 97.7549 13.9855 97.7207 13.98H92.1008C92.0668 13.9843 92.0322 13.9806 91.9998 13.9693C91.9674 13.958 91.9379 13.9393 91.9136 13.9147C91.8894 13.89 91.871 13.8601 91.8598 13.8271C91.8487 13.7942 91.8451 13.7591 91.8493 13.7245V1.47627C91.8462 1.44193 91.8506 1.40732 91.8621 1.37488C91.8736 1.34245 91.8921 1.313 91.9161 1.28861C91.9401 1.26423 91.9691 1.24551 92.001 1.23379C92.0329 1.22207 92.067 1.21763 92.1008 1.22079H93.7341C93.7682 1.21651 93.8027 1.22017 93.8352 1.23149C93.8676 1.24282 93.8971 1.26151 93.9213 1.28614C93.9456 1.31078 93.964 1.34071 93.9751 1.37365C93.9863 1.4066 93.9899 1.4417 93.9857 1.47627V11.8745Z" fill="#005A86"/>
<path d="M100.2 3.51258C100.2 2.01445 100.961 1.21545 102.396 1.21545H104.104C105.539 1.21545 106.3 2.01445 106.3 3.51258V11.6788C106.3 13.1799 105.539 13.9789 104.104 13.9789H102.396C100.961 13.9789 100.2 13.1799 100.2 11.6788V3.51258ZM103.722 11.9197C103.805 11.9318 103.889 11.9237 103.969 11.896C104.048 11.8683 104.12 11.8218 104.18 11.76C104.239 11.6983 104.284 11.623 104.311 11.5401C104.337 11.4572 104.346 11.369 104.334 11.2823V3.91208C104.342 3.82618 104.331 3.73964 104.303 3.6586C104.274 3.57755 104.23 3.504 104.171 3.44316C104.113 3.38232 104.042 3.33568 103.965 3.30655C103.887 3.27743 103.804 3.26653 103.722 3.27464H102.837C102.756 3.2688 102.675 3.28138 102.599 3.31151C102.523 3.34165 102.455 3.38862 102.398 3.4492C102.341 3.50978 102.297 3.58253 102.27 3.66244C102.243 3.74235 102.232 3.82751 102.239 3.91208V11.2823C102.228 11.3687 102.236 11.4567 102.263 11.5393C102.29 11.6219 102.334 11.697 102.393 11.7587C102.452 11.8204 102.524 11.867 102.603 11.8949C102.682 11.9228 102.766 11.9313 102.849 11.9197H103.722Z" fill="#005A86"/>
<path d="M118.854 1.22195C118.897 1.22153 118.94 1.23026 118.979 1.24752C119.019 1.26478 119.054 1.29018 119.082 1.32198C119.111 1.35378 119.132 1.39122 119.144 1.43176C119.156 1.47229 119.159 1.51495 119.153 1.55684L117.757 13.6803C117.758 13.7225 117.749 13.7644 117.731 13.803C117.714 13.8417 117.688 13.8761 117.656 13.904C117.623 13.9319 117.585 13.9526 117.544 13.9647C117.503 13.9767 117.459 13.9799 117.417 13.974H115.826C115.74 13.9791 115.654 13.9516 115.588 13.897C115.521 13.8424 115.478 13.7649 115.468 13.6803L113.779 6.46848L112.09 13.7067C112.075 13.7873 112.031 13.8598 111.965 13.9103C111.899 13.9607 111.817 13.9855 111.734 13.9799H110.111C110.068 13.9858 110.025 13.9826 109.983 13.9705C109.942 13.9584 109.904 13.9377 109.872 13.9099C109.839 13.882 109.813 13.8475 109.796 13.8089C109.778 13.7703 109.769 13.7284 109.77 13.6861L108.437 1.55684C108.43 1.51495 108.434 1.47229 108.446 1.43176C108.458 1.39122 108.479 1.35378 108.508 1.32198C108.536 1.29018 108.571 1.26478 108.61 1.24752C108.65 1.23026 108.692 1.22153 108.735 1.22195H110.278C110.321 1.21603 110.364 1.21922 110.405 1.2313C110.446 1.24339 110.485 1.26409 110.517 1.29198C110.549 1.31987 110.575 1.3543 110.593 1.39291C110.61 1.43153 110.619 1.47341 110.619 1.51571L111.261 9.00655H111.342L112.95 1.52452C112.96 1.44013 113.003 1.36264 113.069 1.30799C113.135 1.25334 113.22 1.22571 113.306 1.23076H114.281C114.367 1.22565 114.453 1.25319 114.519 1.30778C114.586 1.36237 114.629 1.43988 114.639 1.52452L116.23 9.00655H116.31L116.977 1.53921C116.979 1.49777 116.99 1.45719 117.009 1.41986C117.027 1.38252 117.053 1.3492 117.085 1.32183C117.116 1.29446 117.153 1.2736 117.193 1.26049C117.233 1.24737 117.276 1.24226 117.318 1.24545L118.854 1.22195Z" fill="#005A86"/>
<path d="M39.9619 18.8953C41.0662 18.8953 41.6708 19.4992 41.6708 20.6509V21.944C41.6708 22.0652 41.6103 22.1371 41.4814 22.1371H40.2461C40.2218 22.1407 40.1971 22.1384 40.1737 22.1302C40.1504 22.1221 40.1289 22.1083 40.1108 22.0899C40.0928 22.0715 40.0785 22.0489 40.0692 22.0237C40.0598 21.9984 40.0555 21.9713 40.0566 21.944V20.9921C40.0566 20.6756 39.9035 20.5049 39.5851 20.5049H39.0168C38.9558 20.4951 38.8936 20.5005 38.8347 20.5209C38.7758 20.5414 38.7217 20.5762 38.6765 20.6229C38.6313 20.6697 38.596 20.7271 38.5733 20.7909C38.5506 20.8548 38.541 20.9236 38.5453 20.9921V22.6736L41.3544 23.6255C41.4442 23.6497 41.5238 23.7074 41.5799 23.7892C41.6361 23.8709 41.6653 23.9717 41.6627 24.0745V26.892C41.6708 28.0303 41.0662 28.6476 39.9619 28.6476H38.6481C37.5417 28.6476 36.9392 28.0303 36.9392 26.892V25.6124C36.9392 25.4777 37.0097 25.4171 37.1286 25.4171H38.3559C38.4868 25.4171 38.5453 25.4777 38.5453 25.6124V26.5508C38.5453 26.8808 38.7226 27.0402 39.0168 27.0402H39.5851C39.8914 27.0402 40.0566 26.8808 40.0566 26.5508V24.9299L37.2576 23.9892C37.1659 23.9673 37.084 23.9105 37.0259 23.8285C36.9678 23.7466 36.9371 23.6446 36.9392 23.5402V20.6509C36.9392 19.5037 37.5438 18.8953 38.64 18.8953H39.9619Z" fill="#00B25C"/>
<path d="M47.2896 20.6509C47.2896 19.5037 47.8811 18.8953 48.9933 18.8953H50.3175C51.4298 18.8953 52.0213 19.5037 52.0213 20.6509V26.892C52.0213 28.0392 51.4298 28.6476 50.3175 28.6476H48.9933C47.8811 28.6476 47.2896 28.0392 47.2896 26.892V20.6509ZM50.0228 27.0761C50.3297 27.0761 50.4952 26.9167 50.4952 26.589V20.9562C50.4952 20.6374 50.3297 20.4668 50.0228 20.4668H49.3365C49.0276 20.4668 48.8621 20.6374 48.8621 20.9562V26.589C48.8621 26.9167 49.0276 27.0761 49.3365 27.0761H50.0228Z" fill="#00B25C"/>
<path d="M59.1797 27.0405H61.8938C62.0179 27.0405 62.076 27.1123 62.076 27.2335V28.4524C62.076 28.587 62.0179 28.6476 61.8938 28.6476H57.8226C57.7082 28.6476 57.6404 28.587 57.6404 28.4524V19.0922C57.639 19.0648 57.6429 19.0374 57.6518 19.0119C57.6607 18.9864 57.6743 18.9635 57.6917 18.9448C57.7091 18.9262 57.7299 18.9122 57.7525 18.9039C57.7752 18.8956 57.7991 18.8933 57.8226 18.8969H59.0033C59.1293 18.8969 59.1855 18.9688 59.1855 19.0922L59.1797 27.0405Z" fill="#00B25C"/>
<path d="M71.9094 18.8954C71.9657 18.8936 72.0203 18.9179 72.0617 18.9632C72.1031 19.0085 72.1279 19.0712 72.1308 19.1379V26.8921C72.1308 28.0393 71.5763 28.6476 70.5336 28.6476H69.2921C68.2494 28.6476 67.6949 28.0393 67.6949 26.8921V19.1379C67.6978 19.0712 67.7226 19.0085 67.764 18.9632C67.8054 18.9179 67.86 18.8936 67.9163 18.8954H68.9818C69.038 18.8936 69.0927 18.9179 69.1341 18.9632C69.1754 19.0085 69.2002 19.0712 69.2032 19.1379V26.5463C69.2032 26.8764 69.3584 27.0357 69.646 27.0357H70.2138C70.5014 27.0357 70.6566 26.8764 70.6566 26.5463V19.1379C70.6595 19.0708 70.6846 19.0078 70.7264 18.9624C70.7682 18.917 70.8233 18.893 70.8799 18.8954H71.9094Z" fill="#00B25C"/>
<path d="M81.9958 18.8969C82.127 18.8969 82.1856 18.9688 82.1856 19.0922V20.3111C82.1856 20.4323 82.127 20.5064 81.9958 20.5064H80.6233V28.4524C80.6233 28.587 80.5647 28.6476 80.4355 28.6476H79.2042C79.0872 28.6476 79.0165 28.587 79.0165 28.4524V20.5064H77.6439C77.6194 20.51 77.5945 20.5077 77.571 20.4994C77.5474 20.4911 77.5258 20.4771 77.5077 20.4585C77.4895 20.4398 77.4753 20.4169 77.4661 20.3914C77.4568 20.3659 77.4528 20.3385 77.4542 20.3111V19.0922C77.4528 19.0648 77.4568 19.0374 77.4661 19.0119C77.4753 18.9864 77.4895 18.9635 77.5077 18.9448C77.5258 18.9262 77.5474 18.9122 77.571 18.9039C77.5945 18.8956 77.6194 18.8933 77.6439 18.8969H81.9958Z" fill="#00B25C"/>
<path d="M88.9977 18.8468C89.021 18.8431 89.0447 18.8455 89.0671 18.8537C89.0895 18.862 89.1101 18.8759 89.1274 18.8945C89.1447 18.9131 89.1582 18.936 89.167 18.9614C89.1758 18.9868 89.1796 19.0141 89.1783 19.0415V28.3735C89.1796 28.4008 89.1758 28.4282 89.167 28.4536C89.1582 28.479 89.1447 28.5018 89.1274 28.5204C89.1101 28.539 89.0895 28.5529 89.0671 28.5612C89.0447 28.5695 89.021 28.5718 88.9977 28.5682H87.8274C87.7025 28.5682 87.6467 28.4965 87.6467 28.3735V19.0415C87.6467 18.9184 87.7025 18.8468 87.8274 18.8468H88.9977Z" fill="#00B25C"/>
<path d="M94.6062 20.6509C94.6062 19.5037 95.1976 18.8953 96.3099 18.8953H97.6341C98.7464 18.8953 99.3378 19.5037 99.3378 20.6509V26.892C99.3378 28.0392 98.7464 28.6476 97.6341 28.6476H96.3099C95.1976 28.6476 94.6062 28.0392 94.6062 26.892V20.6509ZM97.3374 27.0761C97.6462 27.0761 97.8117 26.9167 97.8117 26.589V20.9562C97.8117 20.6374 97.6462 20.4668 97.3374 20.4668H96.6531C96.3442 20.4668 96.1787 20.6374 96.1787 20.9562V26.589C96.1787 26.9167 96.3442 27.0761 96.6531 27.0761H97.3374Z" fill="#00B25C"/>
<path d="M109.505 18.8969C109.529 18.8932 109.554 18.8956 109.577 18.9039C109.601 18.9121 109.622 18.9261 109.64 18.9448C109.658 18.9634 109.672 18.9863 109.681 19.0118C109.691 19.0373 109.695 19.0647 109.693 19.0921V28.4506C109.695 28.4781 109.691 28.5055 109.681 28.531C109.672 28.5565 109.658 28.5794 109.64 28.598C109.622 28.6167 109.601 28.6306 109.577 28.6389C109.554 28.6472 109.529 28.6496 109.505 28.6459H108.341C108.295 28.6508 108.249 28.6378 108.21 28.6092C108.172 28.5806 108.144 28.5381 108.13 28.4888L106.324 23.2844H106.266V28.4462C106.266 28.5696 106.208 28.6414 106.077 28.6414H104.855C104.831 28.6451 104.806 28.6427 104.783 28.6344C104.759 28.6262 104.738 28.6122 104.72 28.5935C104.702 28.5749 104.687 28.552 104.678 28.5265C104.669 28.501 104.665 28.4736 104.666 28.4462V19.0921C104.665 19.0647 104.669 19.0373 104.678 19.0118C104.687 18.9863 104.702 18.9634 104.72 18.9448C104.738 18.9261 104.759 18.9121 104.783 18.9039C104.806 18.8956 104.831 18.8932 104.855 18.8969H106.019C106.065 18.892 106.111 18.905 106.149 18.9336C106.188 18.9622 106.216 19.0047 106.23 19.054L108.018 24.2337H108.088V19.0921C108.088 18.9687 108.148 18.8969 108.277 18.8969H109.505Z" fill="#00B25C"/>
<path d="M117.861 18.8952C118.903 18.8952 119.458 19.5036 119.458 20.6508V21.9439C119.458 22.0652 119.403 22.137 119.282 22.137H118.127C118.105 22.1407 118.081 22.1383 118.059 22.1302C118.037 22.122 118.017 22.1082 118 22.0898C117.983 22.0714 117.97 22.0488 117.961 22.0236C117.952 21.9984 117.948 21.9712 117.949 21.9439V20.9921C117.949 20.6755 117.806 20.5049 117.507 20.5049H116.975C116.918 20.4951 116.859 20.5006 116.804 20.521C116.748 20.5414 116.697 20.5762 116.655 20.6228C116.612 20.6695 116.579 20.7269 116.557 20.7908C116.536 20.8546 116.527 20.9234 116.53 20.9921V22.6736L119.17 23.6255C119.254 23.65 119.328 23.708 119.381 23.7897C119.433 23.8714 119.46 23.9719 119.458 24.0745V26.892C119.458 28.0392 118.903 28.6476 117.861 28.6476H116.619C115.588 28.6476 115.022 28.0392 115.022 26.892V25.6123C115.022 25.4776 115.09 25.417 115.2 25.417H116.354C116.475 25.417 116.53 25.4776 116.53 25.6123V26.5507C116.53 26.8808 116.697 27.0401 116.975 27.0401H117.507C117.794 27.0401 117.949 26.8808 117.949 26.5507V24.9298L115.323 23.9892C115.236 23.9677 115.159 23.9111 115.104 23.8291C115.049 23.7471 115.02 23.6449 115.022 23.5402V20.6508C115.022 19.5036 115.59 18.8952 116.619 18.8952H117.861Z" fill="#00B25C"/>
</g>
<g clip-path="url(#clip1_294_208)">
<path d="M8.63467 28.6476H5.94338C5.29839 28.6476 4.67977 28.4088 4.22342 27.9837C3.76706 27.5585 3.5103 26.9817 3.50952 26.3801V3.48931C3.50914 3.19107 3.57183 2.8957 3.69401 2.6201C3.81618 2.34449 3.99544 2.09408 4.22153 1.8832C4.44761 1.67231 4.71607 1.5051 5.01153 1.39114C5.30699 1.27717 5.62365 1.2187 5.94338 1.21906H30.7471C31.0668 1.2187 31.3835 1.27717 31.6789 1.39114C31.9744 1.5051 32.2429 1.67231 32.4689 1.8832C32.695 2.09408 32.8743 2.34449 32.9965 2.6201C33.1186 2.8957 33.1813 3.19107 33.1809 3.48931V6.97927C33.1809 6.97927 24.2792 7.99434 19.9585 8.85933C17.7997 9.285 15.6496 9.74069 13.6428 10.6357C12.7453 11.0039 11.9205 11.5103 11.2031 12.1337C9.79602 13.4326 9.85452 14.8924 11.3494 16.1094C12.4054 16.9662 13.6516 17.5037 14.9241 18.0195C16.4891 18.6416 18.1273 19.1109 19.6719 19.774C20.0595 19.9314 20.4274 20.1281 20.7689 20.3607C21.4973 20.8846 21.6143 21.4821 21.117 22.2107C20.677 22.8032 20.1176 23.3101 19.47 23.7033C17.6856 24.8957 15.7344 25.7771 13.7481 26.6284C12.148 27.3133 10.5303 27.9354 8.87162 28.5248C8.79848 28.5549 8.71658 28.6094 8.63467 28.6476Z" fill="#005B86"/>
<path d="M30.7304 28.6312L26.1794 28.6121C26.1628 28.6126 26.1466 28.6085 26.1327 28.6002C26.1189 28.592 26.1081 28.5801 26.1019 28.5661C26.0957 28.5521 26.0944 28.5367 26.0981 28.522C26.1018 28.5073 26.1103 28.494 26.1226 28.4839C27.3179 27.4444 28.5132 26.4158 29.5979 25.2753C30.4391 24.4174 31.1241 23.4419 31.6269 22.3859C32.2604 20.9917 31.9795 19.753 30.838 18.6671C29.9121 17.8446 28.8228 17.1908 27.6286 16.7409C25.3636 15.7968 22.97 15.213 20.5525 14.7109C19.0584 14.4026 17.5434 14.1653 16.1389 13.5623C16.0732 13.5323 16.0075 13.4995 15.9447 13.4641C15.0871 12.9675 14.9556 12.531 15.5532 11.9989C15.9321 11.6817 16.3677 11.4261 16.8412 11.2432C18.8224 10.3974 20.932 9.90078 23.0477 9.42604C26.3138 8.6921 29.6218 8.1246 32.9327 7.62257C33.0319 7.61184 33.1317 7.60637 33.2316 7.6062V7.84357V26.3448C33.2316 26.9507 32.9681 27.5319 32.4992 27.9606C32.0302 28.3893 31.394 28.6305 30.7304 28.6312Z" fill="#04B25B"/>
<path d="M33.2465 7.60622L32.6489 7.6908C29.063 8.23648 25.4771 8.86128 21.951 9.70709C20.1581 10.1382 18.3652 10.5911 16.6798 11.3687C16.3265 11.5293 15.9988 11.7331 15.7057 11.9744C15.2754 12.3454 15.2754 12.6592 15.7057 13.0303C16.0795 13.3203 16.5149 13.5368 16.9846 13.666C18.1559 14.0311 19.3542 14.3192 20.5705 14.5282C23.0321 14.9808 25.4356 15.6657 27.7422 16.5717C28.9687 17.0402 30.0847 17.7202 31.0293 18.5744C32.1319 19.6275 32.4128 20.8335 31.854 22.184C31.3634 23.2865 30.6656 24.3022 29.7921 25.1853C28.7552 26.2985 27.5868 27.2971 26.4364 28.3093C26.295 28.4435 26.1224 28.547 25.9314 28.6121C25.7553 28.6435 25.5756 28.6545 25.3965 28.6449H8.09766C8.09766 28.6449 13.3211 26.4785 15.6668 25.3708C17.0922 24.7307 18.4402 23.9562 19.689 23.0599C20.0499 22.79 20.3695 22.4771 20.6392 22.1295C20.7496 21.9857 20.8277 21.8234 20.869 21.652C20.9103 21.4805 20.9139 21.3032 20.8798 21.1305C20.8456 20.9577 20.7743 20.7928 20.6699 20.6454C20.5655 20.4979 20.4302 20.3708 20.2717 20.2714C19.3005 19.6521 18.1799 19.3083 17.0952 18.9318C15.5837 18.454 14.1066 17.8899 12.6726 17.2429C11.7762 16.8036 10.8797 16.3207 10.2283 15.5704C9.24812 14.4436 9.31386 13.224 10.4105 12.1572C11.322 11.3215 12.4098 10.6634 13.6079 10.2228C15.4009 9.49973 17.2954 9.09865 19.1959 8.71668C22.8744 7.98001 26.5947 7.48071 30.33 7.07964C31.1697 6.98687 32.8551 6.8259 32.8551 6.8259L33.2465 6.78497V7.60622Z" fill="#FEFEFE"/>
</g>
<defs>
<clipPath id="clip0_294_208">
<rect width="82.9524" height="27.7333" fill="white" transform="translate(36.6905 0.914307)"/>
</clipPath>
<clipPath id="clip1_294_208">
<rect width="30.3095" height="27.4286" fill="white" transform="translate(2.93997 1.21906)"/>
</clipPath>
</defs>
</svg>
