<svg width="20" height="20" viewBox="0 0 20 20" fill="none" xmlns="http://www.w3.org/2000/svg">
<path d="M19.9525 0.48759C19.7996 0.0913988 19.3027 -0.106697 18.844 0.0583829L16.0537 0.949813C15.7097 1.04886 15.4804 1.346 15.4804 1.64315V10.7555C15.4804 11.3168 14.9452 11.779 14.2955 11.779H2.86673C2.21694 11.779 1.68182 11.3168 1.68182 10.7555V6.00125C1.68182 5.60506 1.29959 5.2749 0.840909 5.2749C0.382231 5.2749 0 5.60506 0 6.00125V10.7555C0 12.1422 1.29959 13.2648 2.90496 13.2648H14.3337C14.7541 13.2648 15.1364 13.1987 15.5186 13.0336V14.4203C15.5186 14.9816 14.9835 15.4438 14.3337 15.4438H3.51653C2.06405 15.4438 0.879132 16.4673 0.879132 17.7219C0.879132 18.9765 2.06405 20 3.51653 20C4.96901 20 6.15392 18.9765 6.15392 17.7219C6.15392 17.4578 6.07748 17.1606 6.00103 16.9295H9.82335C9.70868 17.1936 9.67045 17.4578 9.67045 17.7219C9.67045 18.9765 10.8554 20 12.3078 20C13.7603 20 14.9452 18.9765 14.9452 17.7219C14.9452 17.4248 14.8688 17.1606 14.7541 16.8965C16.1302 16.6984 17.2004 15.6749 17.2004 14.4203V2.1714L19.4556 1.47807C19.876 1.31299 20.1054 0.883781 19.9525 0.48759ZM4.43388 17.6889C4.43388 18.1181 4.01343 18.4813 3.51653 18.4813C3.01963 18.4813 2.59917 18.1181 2.59917 17.6889C2.59917 17.2597 3.01963 16.8965 3.51653 16.8965C4.01343 16.8965 4.43388 17.2597 4.43388 17.6889ZM12.2696 18.5143C11.7727 18.5143 11.3523 18.1511 11.3523 17.7219C11.3523 17.2927 11.7727 16.9295 12.2696 16.9295C12.7665 16.9295 13.187 17.2927 13.187 17.7219C13.187 18.1511 12.8047 18.5143 12.2696 18.5143Z" fill="#005B86"/>
<path d="M7.98863 9.633C8.14152 9.76506 8.37086 9.83109 8.56198 9.83109C8.75309 9.83109 8.98243 9.76506 9.13532 9.633L12.2314 7.25585C12.5754 6.99172 12.6136 6.5295 12.3078 6.19934C12.0021 5.9022 11.4669 5.86918 11.0847 6.13331L9.40288 7.42093V3.22791C9.40288 2.83172 9.02065 2.50156 8.56198 2.50156C8.1033 2.50156 7.72107 2.83172 7.72107 3.22791V7.42093L6.03925 6.13331C5.69524 5.86918 5.12189 5.9022 4.81611 6.19934C4.51032 6.49648 4.54855 6.99172 4.89255 7.25585L7.98863 9.633Z" fill="#005B86"/>
</svg>
